<?xml version="1.0"?>
<svg xmlns="http://www.w3.org/2000/svg" width="50.098" height="50.086" viewBox="0 0 13.255 13.252"><g transform="translate(-70.84 -157.153)" fill="#e7ad52" stroke="#fff" stroke-width=".026"><circle r=".827" cy="160.784" cx="80.258"></circle><path d="M83.94 161.452c-.276-.702-.782-1.716-1.626-2.556-.84-.837-1.844-1.328-2.537-1.593a2.077 2.077 0 0 0-2.204.467l-2.03 2.02a2.068 2.068 0 0 0-.43 2.292c.106.24.222.474.345.7l-4.453 4.454a.517.517 0 0 0-.152.366v2.273c0 .286.232.517.517.517h2.274a.517.517 0 0 0 .516-.517v-.93h.93a.517.517 0 0 0 .517-.516v-.93h.93a.517.517 0 1 0 0-1.034h-1.446a.517.517 0 0 0-.517.517v.93h-.93a.517.517 0 0 0-.517.517v.93h-1.24v-1.543l4.582-4.583c.169-.168.2-.43.077-.633a8.363 8.363 0 0 1-.49-.938 1.029 1.029 0 0 1 .217-1.14l2.03-2.02c.289-.288.723-.38 1.105-.234.6.23 1.465.652 2.177 1.36.717.714 1.153 1.591 1.393 2.202.15.381.058.814-.232 1.103l-2.054 2.044a1.04 1.04 0 0 1-1.137.222 6.707 6.707 0 0 1-.93-.475.517.517 0 0 0-.54.881c.339.209.7.393 1.073.548.779.324 1.667.15 2.263-.443l2.054-2.044a2.06 2.06 0 0 0 .465-2.214z"></path></g></svg>